<svg height="492pt" viewBox="0 -18 492.07 492" width="492pt" xmlns="http://www.w3.org/2000/svg" xmlns:xlink="http://www.w3.org/1999/xlink"><linearGradient id="a"><stop offset="0" stop-color="#00efd1"/><stop offset="1" stop-color="#00acea"/></linearGradient><linearGradient id="b" gradientUnits="userSpaceOnUse" x1="276.465" x2="276.465" xlink:href="#a" y1="-19.965" y2="470.529"/><linearGradient id="c" gradientUnits="userSpaceOnUse" x1="104.041" x2="104.041" xlink:href="#a" y1="-19.965" y2="470.529"/><linearGradient id="d" gradientUnits="userSpaceOnUse" x1="171.441" x2="171.441" xlink:href="#a" y1="-19.965" y2="470.529"/><linearGradient id="e" gradientUnits="userSpaceOnUse" x1="239.931" x2="239.931" xlink:href="#a" y1="-19.965" y2="470.529"/><linearGradient id="f" gradientUnits="userSpaceOnUse" x1="307.331" x2="307.331" xlink:href="#a" y1="-19.965" y2="470.529"/><linearGradient id="g" gradientUnits="userSpaceOnUse" x1="375.82" x2="375.82" xlink:href="#a" y1="-19.965" y2="470.529"/><linearGradient id="h" gradientUnits="userSpaceOnUse" x1="443.221" x2="443.221" xlink:href="#a" y1="-19.965" y2="470.529"/><linearGradient id="i" gradientUnits="userSpaceOnUse" x1="119.57" x2="119.57" xlink:href="#a" y1="-19.965" y2="470.529"/><linearGradient id="j" gradientUnits="userSpaceOnUse" x1="186.972" x2="186.972" xlink:href="#a" y1="-19.965" y2="470.529"/><linearGradient id="k" gradientUnits="userSpaceOnUse" x1="255.46" x2="255.46" xlink:href="#a" y1="-19.965" y2="470.529"/><linearGradient id="l" gradientUnits="userSpaceOnUse" x1="322.861" x2="322.861" xlink:href="#a" y1="-19.965" y2="470.529"/><linearGradient id="m" gradientUnits="userSpaceOnUse" x1="391.35" x2="391.35" xlink:href="#a" y1="-19.965" y2="470.529"/><linearGradient id="n" gradientUnits="userSpaceOnUse" x1="458.751" x2="458.751" xlink:href="#a" y1="-19.965" y2="470.529"/><linearGradient id="o" gradientUnits="userSpaceOnUse" x1="120" x2="120" xlink:href="#a" y1="-19.965" y2="470.529"/><linearGradient id="p" gradientUnits="userSpaceOnUse" x1="192.656" x2="192.656" xlink:href="#a" y1="-19.965" y2="470.529"/><linearGradient id="q" gradientUnits="userSpaceOnUse" x1="49.532" x2="49.532" xlink:href="#a" y1="-19.965" y2="470.529"/><linearGradient id="r" gradientUnits="userSpaceOnUse" x1="20" x2="20" xlink:href="#a" y1="-19.965" y2="470.529"/><path d="m469 176.308594c-14.605469-14.695313-34.488281-22.929688-55.207031-22.863282-1.839844 0-3.730469.023438-5.660157.105469-4.011718-66.515625-59.089843-118.425781-125.726562-118.492187-27.707031-.085938-54.652344 9.054687-76.585938 25.988281-12.125 9.339844-22.457031 20.796875-30.507812 33.8125-11.050781-22.859375-35.253906-36.332031-60.503906-33.683594-25.253906 2.644531-46.132813 20.847657-52.203125 45.503907-6.070313 24.652343 3.976562 50.46875 25.117187 64.535156-11.402344 17.832031-17.445312 38.5625-17.421875 59.726562v.285156.230469c0 .117188-.007812.476563-.007812.597657.007812 49.480468 40.265625 89.980468 89.746093 89.980468h242.289063c49.484375 0 89.742187-40.5 89.742187-89.984375 0-.683593-.078124-1.367187-.230468-2.035156-.402344-20.175781-8.582032-39.417969-22.839844-53.707031zm-392.140625-55.234375c-.003906-23.351563 18.152344-42.683594 41.460937-44.148438 23.308594-1.464843 43.738282 15.445313 46.660157 38.613281-.78125 2.007813-1.53125 4.027344-2.207031 6.074219-25.457032 4.203125-48.628907 17.214844-65.472657 36.757813-12.71875-8.140625-20.417969-22.195313-20.441406-37.296875zm325.46875 184.960937h-242.289063c-40.515624 0-73.507812-33.089844-73.738281-73.554687.007813-.167969.011719-.414063.011719-.585938 0-.269531-.015625-.859375-.03125-.859375h.019531c0-48 35.921875-88.652344 83.554688-94.222656 3.214843-.382812 5.886719-2.667969 6.765625-5.785156 14.964844-52.78125 66.550781-86.457032 120.894531-78.914063s94.808594 53.992188 94.835937 108.855469c0 .433594 0 .855469-.011718 1.289062-.0625 2.429688.988281 4.757813 2.847656 6.320313 1.859375 1.566406 4.328125 2.199219 6.714844 1.726563 18.222656-3.054688 36.871094 1.984374 51.078125 13.796874 14.207031 11.816407 22.5625 29.234376 22.882812 47.710938 0 .660156.0625 1.320312.1875 1.972656-.921875 39.863282-33.640625 72.25-73.722656 72.25zm0 0" fill="url(#b)"/><path d="m112.253906 347.378906c-4.140625-1.535156-8.746094.578125-10.277344 4.722656l-10.875 29.351563c-1.0625 2.695313-.585937 5.753906 1.25 7.996094 1.832032 2.246093 4.734376 3.320312 7.589844 2.8125 2.851563-.503907 5.207032-2.511719 6.160156-5.25l10.871094-29.351563c1.535156-4.144531-.578125-8.746094-4.71875-10.28125zm0 0" fill="url(#c)"/><path d="m179.65625 347.378906c-4.144531-1.535156-8.746094.578125-10.28125 4.722656l-10.875 29.351563c-1.066406 2.695313-.589844 5.757813 1.246094 8.003906 1.835937 2.246094 4.738281 3.320313 7.59375 2.8125 2.855468-.507812 5.210937-2.519531 6.160156-5.257812l10.871094-29.355469c1.535156-4.140625-.574219-8.742188-4.714844-10.277344zm0 0" fill="url(#d)"/><path d="m248.144531 347.378906c-4.144531-1.535156-8.746093.578125-10.28125 4.722656l-10.871093 29.351563c-1.066407 2.695313-.589844 5.757813 1.246093 8.003906 1.835938 2.246094 4.742188 3.320313 7.59375 2.8125 2.855469-.507812 5.210938-2.519531 6.160157-5.257812l10.871093-29.355469c1.535157-4.140625-.578125-8.742188-4.71875-10.277344zm0 0" fill="url(#e)"/><path d="m315.546875 347.378906c-4.144531-1.535156-8.746094.578125-10.28125 4.722656l-10.871094 29.351563c-1.066406 2.695313-.589843 5.757813 1.246094 8.003906 1.832031 2.246094 4.738281 3.320313 7.59375 2.8125 2.855469-.507812 5.210937-2.519531 6.160156-5.257812l10.871094-29.355469c1.535156-4.140625-.578125-8.742188-4.71875-10.277344zm0 0" fill="url(#f)"/><path d="m384.035156 347.378906c-4.144531-1.535156-8.746094.578125-10.28125 4.722656l-10.871094 29.351563c-1.066406 2.695313-.589843 5.757813 1.246094 8.003906 1.835938 2.246094 4.742188 3.320313 7.59375 2.8125 2.855469-.507812 5.210938-2.519531 6.160156-5.257812l10.871094-29.355469c1.535156-4.140625-.578125-8.742188-4.71875-10.277344zm0 0" fill="url(#g)"/><path d="m451.4375 347.378906c-4.144531-1.535156-8.746094.578125-10.28125 4.722656l-10.875 29.351563c-1.0625 2.695313-.582031 5.753906 1.25 7.996094 1.835938 2.246093 4.738281 3.320312 7.59375 2.8125 2.851562-.503907 5.207031-2.511719 6.15625-5.25l10.875-29.351563c1.535156-4.144531-.578125-8.746094-4.71875-10.28125zm0 0" fill="url(#h)"/><path d="m127.785156 411.527344c-4.144531-1.53125-8.746094.582031-10.28125 4.726562l-10.871094 29.351563c-1.070312 2.695312-.59375 5.761719 1.242188 8.007812 1.835938 2.246094 4.742188 3.324219 7.597656 2.816407 2.859375-.511719 5.214844-2.527344 6.160156-5.269532l10.871094-29.351562c1.535156-4.140625-.578125-8.742188-4.71875-10.28125zm0 0" fill="url(#i)"/><path d="m195.1875 411.527344c-4.144531-1.53125-8.75.582031-10.28125 4.726562l-10.871094 29.351563c-1.070312 2.695312-.59375 5.761719 1.242188 8.007812 1.832031 2.246094 4.742187 3.324219 7.597656 2.816407 2.855469-.511719 5.214844-2.527344 6.160156-5.269532l10.871094-29.351562c1.535156-4.140625-.578125-8.742188-4.71875-10.28125zm0 0" fill="url(#j)"/><path d="m263.675781 411.527344c-4.144531-1.53125-8.746093.582031-10.28125 4.726562l-10.871093 29.351563c-1.070313 2.695312-.59375 5.761719 1.238281 8.007812 1.835937 2.246094 4.746093 3.324219 7.601562 2.816407 2.855469-.511719 5.210938-2.527344 6.160157-5.269532l10.875-29.351562c1.535156-4.144532-.582032-8.746094-4.722657-10.28125zm0 0" fill="url(#k)"/><path d="m331.074219 411.527344c-4.140625-1.53125-8.746094.582031-10.277344 4.726562l-10.871094 29.351563c-1.070312 2.695312-.597656 5.761719 1.238281 8.007812 1.835938 2.246094 4.746094 3.324219 7.601563 2.816407 2.855469-.511719 5.210937-2.527344 6.160156-5.269532l10.875-29.351562c1.535157-4.144532-.582031-8.746094-4.726562-10.28125zm0 0" fill="url(#l)"/><path d="m399.5625 411.527344c-4.144531-1.53125-8.746094.582031-10.28125 4.726562l-10.871094 29.351563c-1.066406 2.695312-.59375 5.761719 1.242188 8.007812 1.835937 2.246094 4.746094 3.324219 7.601562 2.816407 2.855469-.511719 5.210938-2.527344 6.15625-5.269532l10.871094-29.351562c1.535156-4.140625-.578125-8.742188-4.71875-10.28125zm0 0" fill="url(#m)"/><path d="m466.964844 411.527344c-4.144532-1.53125-8.746094.582031-10.28125 4.726562l-10.871094 29.351563c-1.070312 2.695312-.59375 5.761719 1.242188 8.007812 1.835937 2.246094 4.742187 3.324219 7.597656 2.816407 2.859375-.511719 5.214844-2.527344 6.160156-5.269532l10.871094-29.351562c1.535156-4.140625-.578125-8.742188-4.71875-10.28125zm0 0" fill="url(#n)"/><path d="m120 40.035156c4.417969 0 8-3.582031 8-8v-24c0-4.417968-3.582031-7.9999998-8-7.9999998s-8 3.5820318-8 7.9999998v24c0 4.417969 3.582031 8 8 8zm0 0" fill="url(#o)"/><path d="m184.347656 65.824219c2.121094 0 4.152344-.839844 5.652344-2.34375l16.621094-16.621094c3.03125-3.136719 2.988281-8.128906-.097656-11.214844-3.085938-3.085937-8.074219-3.128906-11.214844-.097656l-16.621094 16.621094c-2.289062 2.289062-2.972656 5.726562-1.734375 8.71875 1.238281 2.988281 4.15625 4.9375 7.394531 4.9375zm0 0" fill="url(#p)"/><path d="m52.1875 178.671875-16.625 16.617187c-3.121094 3.125-3.121094 8.191407.003906 11.316407 3.121094 3.125 8.1875 3.125 11.3125 0l16.621094-16.621094c3.125-3.125 3.125-8.191406 0-11.3125-3.125-3.125-8.191406-3.125-11.3125 0zm0 0" fill="url(#q)"/><path d="m40 122.035156c0-4.417968-3.582031-8-8-8h-24c-4.417969 0-8 3.582032-8 8 0 4.417969 3.582031 8 8 8h24c4.417969 0 8-3.582031 8-8zm0 0" fill="url(#r)"/><path d="m52.1875 63.480469c3.121094 3.125 8.1875 3.125 11.3125 0s3.125-8.1875 0-11.3125l-16.621094-16.621094c-3.125-3.125-8.1875-3.125-11.3125 0s-3.125 8.1875-.003906 11.3125zm0 0" fill="url(#q)"/></svg>