<svg height="492pt" viewBox="-34 0 492 492.64764" width="492pt" xmlns="http://www.w3.org/2000/svg" xmlns:xlink="http://www.w3.org/1999/xlink"><linearGradient id="a" gradientUnits="userSpaceOnUse" x1="212.25882" x2="212.25882" y1="-1.677" y2="488.817"><stop offset="0" stop-color="#00efd1"/><stop offset="1" stop-color="#00acea"/></linearGradient><g fill="url(#a)"><path d="m212.257812 0c-116.859374 0-211.933593 91.050781-211.933593 202.964844 0 35.921875 11.074219 73.539062 32.914062 111.808594 17.261719 30.246093 41.273438 61 71.367188 91.402343 51.023437 51.546875 101.230469 83.863281 103.34375 85.210938 2.628906 1.679687 5.992187 1.679687 8.617187 0 2.113282-1.347657 52.324219-33.664063 103.34375-85.210938 30.09375-30.402343 54.101563-61.152343 71.367188-91.402343 21.839844-38.269532 32.917968-75.886719 32.917968-111.808594 0-111.914063-95.074218-202.964844-211.9375-202.964844zm165.199219 306.699219c-16.53125 29-39.644531 58.609375-68.699219 87.996093-29.609374 29.710938-61.914062 56.609376-96.5 80.347657-34.582031-23.738281-66.886718-50.636719-96.5-80.347657-29.054687-29.382812-52.167968-58.992187-68.699218-87.992187-20.398438-35.78125-30.734375-70.679687-30.734375-103.738281 0-103.09375 87.898437-186.964844 195.933593-186.964844 108.035157 0 195.9375 83.871094 195.9375 186.964844 0 33.058594-10.335937 67.957031-30.738281 103.738281zm0 0"/><path d="m212.257812 51.445312c-86.511718 0-156.890624 70.378907-156.890624 156.890626 0 86.511718 70.378906 156.894531 156.890624 156.894531 86.511719 0 156.894532-70.382813 156.894532-156.894531 0-86.511719-70.382813-156.890626-156.894532-156.890626zm0 297.785157c-77.6875 0-140.890624-63.199219-140.890624-140.894531 0-77.691407 63.203124-140.890626 140.890624-140.890626s140.894532 63.203126 140.894532 140.890626-63.207032 140.894531-140.894532 140.894531zm0 0"/><path d="m279.6875 181.648438c-3.597656-30.914063-27.933594-55.324219-58.839844-59.015626-30.90625-3.691406-60.304687 14.304688-71.082031 43.503907-27.660156 5.769531-47.472656 30.164062-47.445313 58.421875v.21875.347656c.019532 27.113281 21.957032 49.105469 49.070313 49.199219h121.734375c27.113281-.09375 49.050781-22.085938 49.070312-49.203125 0-.5-.039062-1.003906-.125-1.5-.746093-23.023438-19.351562-41.449219-42.382812-41.972656zm-6.5625 76.675781h-121.734375c-18.167969-.082031-32.902344-14.746094-33.066406-32.914063 0-.121094.003906-.429687 0-.550781-.007813-.125 0-.535156-.007813-.535156.023438-22.074219 16.542969-40.648438 38.460938-43.246094 3.203125-.351563 5.878906-2.601563 6.769531-5.699219 6.992187-24.605468 31.050781-40.289062 56.382813-36.757812 25.335937 3.527344 44.191406 25.1875 44.195312 50.765625v.558593c-.0625 2.429688.984375 4.757813 2.84375 6.324219 1.863281 1.570313 4.335938 2.203125 6.71875 1.726563 1.71875-.28125 3.460938-.398438 5.203125-.351563 15.058594.058594 27.226563 12.292969 27.203125 27.351563 0 .433594.027344.867187.085938 1.296875-.640626 17.816406-15.226563 31.949219-33.054688 32.03125zm0 0"/></g></svg>