<svg height="492pt" viewBox="-34 0 492 492.64764" width="492pt" xmlns="http://www.w3.org/2000/svg" xmlns:xlink="http://www.w3.org/1999/xlink"><linearGradient id="a" gradientUnits="userSpaceOnUse" x1="212.25882" x2="212.25882" y1="-1.677" y2="488.817"><stop offset="0" stop-color="#00efd1"/><stop offset="1" stop-color="#00acea"/></linearGradient><g fill="url(#a)"><path d="m212.257812 0c-116.859374 0-211.933593 91.050781-211.933593 202.964844 0 35.921875 11.074219 73.539062 32.914062 111.808594 17.261719 30.246093 41.273438 61 71.367188 91.402343 51.023437 51.546875 101.230469 83.863281 103.34375 85.210938 2.628906 1.679687 5.992187 1.679687 8.617187 0 2.113282-1.347657 52.324219-33.664063 103.34375-85.210938 30.09375-30.402343 54.101563-61.152343 71.367188-91.402343 21.839844-38.269532 32.917968-75.886719 32.917968-111.808594 0-111.914063-95.074218-202.964844-211.9375-202.964844zm165.199219 306.699219c-16.53125 29-39.644531 58.609375-68.699219 87.996093-29.609374 29.710938-61.914062 56.609376-96.5 80.347657-34.582031-23.738281-66.886718-50.636719-96.5-80.347657-29.054687-29.382812-52.167968-58.992187-68.699218-87.992187-20.398438-35.78125-30.734375-70.679687-30.734375-103.738281 0-103.09375 87.898437-186.964844 195.933593-186.964844 108.035157 0 195.9375 83.871094 195.9375 186.964844 0 33.058594-10.335937 67.957031-30.738281 103.738281zm0 0"/><path d="m212.257812 51.445312c-86.511718 0-156.890624 70.378907-156.890624 156.890626 0 86.511718 70.378906 156.894531 156.890624 156.894531 86.511719 0 156.894532-70.382813 156.894532-156.894531 0-86.511719-70.382813-156.890626-156.894532-156.890626zm0 297.785157c-77.6875 0-140.890624-63.199219-140.890624-140.894531 0-77.691407 63.203124-140.890626 140.890624-140.890626s140.894532 63.203126 140.894532 140.890626-63.207032 140.894531-140.894532 140.894531zm0 0"/><path d="m272.605469 146.324219h-.007813c-2.59375.042969-5.011718 1.328125-6.5 3.453125l-12.261718 17.191406-35.0625-49.203125c-1.488282-2.125-3.910157-3.40625-6.507813-3.441406-2.597656.046875-5.015625 1.332031-6.5 3.460937l-35.144531 49.136719-12.191406-17.160156c-1.488282-2.125-3.910157-3.40625-6.507813-3.4375-2.59375.042969-5.007813 1.328125-6.5 3.453125l-36.835937 51.519531c-.148438.207031-.289063.449219-.417969.671875-8.253907 14.234375-8.132813 31.507812.320312 46.183594 8.929688 15.582031 25.480469 25.230468 43.441407 25.328125 5.292968.007812 10.550781-.839844 15.574218-2.507813 25.484375 22.8125 64.050782 22.816406 89.539063.003906 5.019531 1.667969 10.277343 2.515626 15.566406 2.507813 17.984375-.089844 34.558594-9.761719 43.484375-25.375 8.414062-14.644531 8.515625-31.835937.265625-45.988281-.125-.210938-.257813-.417969-.398437-.617188l-36.839844-51.71875c-1.488282-2.132812-3.914063-3.421875-6.515625-3.460937zm-150.261719 93.855469c-5.585938-9.691407-5.769531-20.546876-.523438-29.84375l30.089844-42.03125 8.871094 12.425781-7.335938 10.246093c-.148437.207032-.289062.421876-.417968.644532-11.109375 19.160156-10.9375 42.410156.460937 62.199218.679688 1.183594 1.398438 2.335938 2.144531 3.464844-1.234374.136719-2.472656.203125-3.714843.203125-12.238281-.085937-23.507813-6.679687-29.574219-17.308593zm89.914062 31.90625c-18.578124-.125-35.6875-10.128907-44.90625-26.261719-8.570312-14.875-8.808593-31.570313-.664062-45.863281l45.5625-63.648438 45.582031 63.851562c8.121094 14.175782 7.902344 30.773438-.613281 45.601563-9.214844 16.167969-26.351562 26.199219-44.960938 26.320313zm89.953126-31.949219c-6.066407 10.65625-17.351563 17.265625-29.613282 17.351562-1.234375 0-2.46875-.066406-3.699218-.203125.761718-1.152344 1.496093-2.335937 2.1875-3.542968 11.34375-19.742188 11.488281-42.894532.390624-61.933594-.121093-.214844-.257812-.421875-.398437-.621094l-7.425781-10.402344 8.9375-12.480468 30.109375 42.179687c5.230469 9.207031 5.058593 19.996094-.488281 29.652344zm0 0"/></g></svg>