<svg height="468pt" viewBox="0 -85 468.106 468" width="468pt" xmlns="http://www.w3.org/2000/svg" xmlns:xlink="http://www.w3.org/1999/xlink"><linearGradient id="a" gradientUnits="userSpaceOnUse" x1="234.053" x2="234.053" y1="-99.25492" y2="391.23908"><stop offset="0" stop-color="#00efd1"/><stop offset="1" stop-color="#00acea"/></linearGradient><g fill="url(#a)"><path d="m460.105469 169.816406c-10.707031-.105468-21.40625.722656-31.96875 2.472656-11.761719-98.265624-95.113281-172.2343745-194.082031-172.2343745s-182.320313 73.9687505-194.082032 172.2343745c-10.566406-1.75-21.265625-2.578124-31.972656-2.472656-4.417969 0-8 3.582032-8 8 0 4.417969 3.582031 8 8 8 26.972656 0 40.105469 4.324219 54.011719 8.898438 14.492187 4.773437 29.472656 9.703125 59.011719 9.703125 29.539062 0 44.523437-4.933594 59.015624-9.703125 13.898438-4.574219 27.035157-8.898438 54.007813-8.898438s40.109375 4.324219 54.015625 8.898438c14.488281 4.773437 29.472656 9.703125 59.015625 9.703125 29.539063 0 44.523437-4.933594 59.015625-9.703125 13.898438-4.574219 27.039062-8.898438 54.011719-8.898438 4.417969 0 8-3.582031 8-8 0-4.417968-3.582031-8-8-8zm-226.050781-36.460937c-28.332032-.058594-53.09375 19.101562-60.152344 46.535156-8.371094 2.949219-16.980469 5.171875-25.730469 6.636719 4.707031-43.882813 41.746094-77.15625 85.882813-77.15625 44.136718 0 81.171874 33.273437 85.878906 77.15625-8.75-1.464844-17.355469-3.683594-25.726563-6.632813-7.042969-27.445312-31.816406-46.613281-60.152343-46.539062zm-40.945313 40.800781c7.96875-15.246094 23.746094-24.800781 40.949219-24.800781s32.984375 9.554687 40.953125 24.800781c-10.375-2.507812-22.960938-4.339844-40.957031-4.339844-17.996094 0-30.578126 1.828125-40.945313 4.335938zm143.039063 14c-3.976563-53.445312-48.5-94.78125-102.09375-94.78125-53.597657 0-98.121094 41.335938-102.09375 94.78125-3.386719.171875-7.011719.265625-10.9375.265625-8.015626.054687-16.03125-.421875-23.984376-1.433594 4.496094-72.371093 64.5-128.769531 137.015626-128.769531 72.511718 0 132.515624 56.398438 137.011718 128.769531-7.957031 1.011719-15.96875 1.492188-23.988281 1.433594-3.925781 0-7.546875-.09375-10.929687-.265625zm64.941406-8.636719c-4.640625 1.527344-9.195313 3.027344-14.199219 4.34375-6.078125-79.910156-72.691406-141.652343-152.832031-141.652343-80.144532 0-146.757813 61.742187-152.832032 141.652343-5.011718-1.316406-9.570312-2.816406-14.207031-4.34375-3.675781-1.210937-7.378906-2.429687-11.34375-3.574219 9.96875-91 86.839844-159.902343 178.382813-159.902343 91.539062 0 168.410156 68.902343 178.382812 159.902343-3.972656 1.144532-7.679687 2.363282-11.351562 3.574219zm0 0"/><path d="m432.199219 216.328125c-26.222657 0-39.5 4.988281-52.351563 9.8125-12.039062 4.523437-23.410156 8.792969-46.726562 8.792969s-34.6875-4.269532-46.722656-8.792969c-12.847657-4.824219-26.128907-9.8125-52.351563-9.8125s-39.5 4.988281-52.347656 9.8125c-12.039063 4.523437-23.410157 8.792969-46.722657 8.792969-23.316406 0-34.683593-4.269532-46.722656-8.792969-12.84375-4.824219-26.125-9.8125-52.347656-9.8125-4.417969 0-8 3.582031-8 8s3.582031 8 8 8c23.316406 0 34.6875 4.269531 46.722656 8.792969 12.84375 4.824218 26.128906 9.8125 52.347656 9.8125s39.5-4.988282 52.347657-9.8125c12.039062-4.523438 23.40625-8.792969 46.722656-8.792969s34.6875 4.269531 46.726563 8.792969c12.84375 4.824218 26.128906 9.8125 52.347656 9.8125 26.222656 0 39.5-4.988282 52.351562-9.8125 12.039063-4.523438 23.410156-8.792969 46.726563-8.792969 4.417969 0 8-3.582031 8-8s-3.582031-8-8-8zm0 0"/><path d="m404.289062 262.84375c-22.949218 0-34.546874 5.070312-45.761718 9.972656-10.160156 4.441406-19.75 8.632813-39.359375 8.632813s-29.199219-4.191407-39.355469-8.632813c-11.214844-4.898437-22.8125-9.972656-45.765625-9.972656-22.949219 0-34.546875 5.070312-45.761719 9.972656-10.15625 4.441406-19.75 8.632813-39.355468 8.632813-19.605469 0-29.199219-4.191407-39.351563-8.632813-11.214844-4.898437-22.8125-9.972656-45.761719-9.972656-4.417968 0-8 3.582031-8 8s3.582032 8 8 8c19.605469 0 29.199219 4.195312 39.351563 8.632812 11.214843 4.902344 22.8125 9.972657 45.761719 9.972657 22.949218 0 34.550781-5.066407 45.765624-9.972657 10.15625-4.441406 19.746094-8.632812 39.359376-8.632812 19.609374 0 29.199218 4.195312 39.355468 8.632812 11.214844 4.902344 22.8125 9.972657 45.765625 9.972657 22.949219 0 34.546875-5.066407 45.761719-9.972657 10.15625-4.4375 19.75-8.632812 39.359375-8.632812 4.417969 0 8-3.582031 8-8s-3.582031-8-8-8zm0 0"/></g></svg>