<svg height="486pt" viewBox="-24 0 486 486.45845" width="486pt" xmlns="http://www.w3.org/2000/svg" xmlns:xlink="http://www.w3.org/1999/xlink"><linearGradient id="a" gradientUnits="userSpaceOnUse" x1="219.397225" x2="219.397225" y1="-4.770381" y2="485.723619"><stop offset="0" stop-color="#00efd1"/><stop offset="1" stop-color="#00acea"/></linearGradient><g fill="url(#a)"><path d="m323.296875 399.710938-36.917969-51.921876c-1.476562-2.152343-3.890625-3.476562-6.5-3.558593-2.609375.082031-5.023437 1.398437-6.5 3.550781l-12.308594 17.292969-35.148437-49.367188c-1.488281-2.136719-3.914063-3.429687-6.519531-3.476562-2.605469.070312-5.019532 1.378906-6.5 3.519531l-35.222656 49.292969-12.234376-17.296875c-1.484374-2.148438-3.90625-3.457032-6.515624-3.515625h-.003907c-2.609375.082031-5.023437 1.398437-6.5 3.550781l-36.929687 51.675781c-.148438.210938-.289063.476563-.414063.703125-8.269531 14.261719-8.148437 31.578125.320313 46.277344 8.945312 15.613281 25.527344 25.28125 43.519531 25.378906 5.304687.011719 10.578125-.839844 15.617187-2.511718 25.535157 22.867187 64.183594 22.871093 89.722657.007812 5.03125 1.675781 10.300781 2.523438 15.601562 2.515625 18.019531-.089844 34.621094-9.777344 43.5625-25.421875 8.433594-14.671875 8.53125-31.894531.269531-46.070312-.117187-.214844-.25-.421876-.398437-.625zm-194.03125 38.761718c-5.601563-9.71875-5.785156-20.601562-.523437-29.925781l30.171874-42.148437 8.910157 12.484374-7.359375 10.28125c-.148438.207032-.289063.421876-.414063.640626-11.132812 19.203124-10.960937 42.496093.457031 62.316406.6875 1.191406 1.410157 2.359375 2.164063 3.5-1.246094.136718-2.496094.207031-3.75.207031-12.273437-.085937-23.570313-6.699219-29.652344-17.355469zm90.132813 31.984375c-18.628907-.121093-35.78125-10.152343-45.023438-26.328125-8.589844-14.914062-8.828125-31.648437-.664062-45.980468l45.675781-63.808594 45.703125 64.011718c8.140625 14.210938 7.921875 30.855469-.617188 45.71875-9.238281 16.210938-26.417968 26.269532-45.074218 26.386719zm90.164062-32.027343c-6.082031 10.683593-17.398438 17.316406-29.691406 17.398437-1.25 0-2.496094-.066406-3.738282-.207031.769532-1.164063 1.503907-2.355469 2.210938-3.574219 11.363281-19.777344 11.507812-42.976563.386719-62.054687-.121094-.210938-.253907-.417969-.398438-.617188l-7.449219-10.433594 8.976563-12.539062 30.191406 42.292968c5.246094 9.234376 5.074219 20.054688-.488281 29.734376zm0 0"/><path d="m414.640625 146.917969c-15.136719-15.234375-35.75-23.769531-57.226563-23.699219-2.011718 0-4.085937.023438-6.199218.125-4-69.191406-61.238282-123.2695312-130.546875-123.34375-28.765625-.0898438-56.738281 9.40625-79.507813 26.980469-20.882812 16.082031-36.46875 38.050781-44.757812 63.070312-55.523438 9.179688-96.226563 57.222657-96.164063 113.5v.277344.265625c0 .117188-.007812.085938-.007812.207031.066406 51.355469 41.726562 92.945313 93.082031 92.929688h252.167969c51.351562.011719 93.007812-41.578125 93.078125-92.929688 0-.628906-.082032-1.257812-.238282-1.867187-.410156-20.871094-8.898437-40.773438-23.679687-55.515625zm-69.160156 134.3125h-252.167969c-42.351562.023437-76.78125-34.148438-77.074219-76.5.007813-.167969.011719-.425781.011719-.597657 0-.28125-.015625.09375-.03125-.90625h.019531c.019531-50.101562 37.496094-92.273437 87.25-98.179687 3.203125-.339844 5.878907-2.589844 6.765625-5.683594 15.648438-55.078125 69.503906-90.199219 126.214844-82.308593 56.714844 7.890624 98.933594 56.375 98.953125 113.636718 0 .457032 0 .917969-.007813 1.371094-.0625 2.433594.984376 4.757812 2.84375 6.324219 1.859376 1.566406 4.332032 2.199219 6.71875 1.726562 4.105469-.699219 8.273438-1 12.4375-.902343 35.800782 0 64.925782 29.265624 64.925782 65.234374 0 .546876.070312 1.089844.203125 1.617188-1.019531 41.824219-35.226563 75.1875-77.0625 75.167969zm0 0"/></g></svg>