<svg height="438pt" viewBox="0 0 438.325 438" width="438pt" xmlns="http://www.w3.org/2000/svg" xmlns:xlink="http://www.w3.org/1999/xlink"><linearGradient id="a"><stop offset="0" stop-color="#00efd1"/><stop offset="1" stop-color="#00acea"/></linearGradient><linearGradient id="b" gradientUnits="userSpaceOnUse" x1="219.164" x2="219.164" xlink:href="#a" y1="-29.179875" y2="461.314125"/><linearGradient id="c" gradientUnits="userSpaceOnUse" x1="34.575" x2="34.575" xlink:href="#a" y1="-29.179875" y2="461.314125"/><linearGradient id="d" gradientUnits="userSpaceOnUse" x1="104.726" x2="104.726" xlink:href="#a" y1="-29.179875" y2="461.314125"/><linearGradient id="e" gradientUnits="userSpaceOnUse" x1="176.007" x2="176.007" xlink:href="#a" y1="-29.179875" y2="461.314125"/><linearGradient id="f" gradientUnits="userSpaceOnUse" x1="246.158" x2="246.158" xlink:href="#a" y1="-29.179875" y2="461.314125"/><linearGradient id="g" gradientUnits="userSpaceOnUse" x1="317.439" x2="317.439" xlink:href="#a" y1="-29.179875" y2="461.314125"/><linearGradient id="h" gradientUnits="userSpaceOnUse" x1="387.59" x2="387.59" xlink:href="#a" y1="-29.179875" y2="461.314125"/><linearGradient id="i" gradientUnits="userSpaceOnUse" x1="50.738" x2="50.738" xlink:href="#a" y1="-29.179875" y2="461.314125"/><linearGradient id="j" gradientUnits="userSpaceOnUse" x1="120.889" x2="120.889" xlink:href="#a" y1="-29.179875" y2="461.314125"/><linearGradient id="k" gradientUnits="userSpaceOnUse" x1="192.17" x2="192.17" xlink:href="#a" y1="-29.179875" y2="461.314125"/><linearGradient id="l" gradientUnits="userSpaceOnUse" x1="262.321" x2="262.321" xlink:href="#a" y1="-29.179875" y2="461.314125"/><linearGradient id="m" gradientUnits="userSpaceOnUse" x1="333.602" x2="333.602" xlink:href="#a" y1="-29.179875" y2="461.314125"/><linearGradient id="n" gradientUnits="userSpaceOnUse" x1="403.753" x2="403.753" xlink:href="#a" y1="-29.179875" y2="461.314125"/><path d="m414.410156 147.082031c-15.140625-15.234375-35.75-23.769531-57.226562-23.699219-2.015625 0-4.089844.023438-6.203125.125-4-69.191406-61.238281-123.273437-130.542969-123.34375-28.765625-.0898432-56.742188 9.402344-79.511719 26.980469-20.882812 16.082031-36.46875 38.046875-44.753906 63.066407-55.527344 9.179687-96.2304688 57.222656-96.16796875 113.5 0 .09375 0 .1875.00390625.277343v.269531c-.00390625.117188-.0078125.300782-.0078125.421876.0546875 51.394531 41.683594 93.054687 93.078125 93.140624h252.167969c51.394531-.089843 93.027344-41.746093 93.078125-93.140624 0-.667969-.078125-1.332032-.238281-1.980469-.40625-20.902344-8.890626-40.835938-23.675782-55.617188zm-69.164062 134.738281h-252.167969c-42.390625-.078124-76.792969-34.320312-77.074219-76.710937.011719-.167969.015625-.316406.011719-.488281.003906-.265625-.007813-.535156-.03125-.800782h.019531c0-50 37.507813-92.578124 87.25-98.394531 3.21875-.386719 5.886719-2.667969 6.769532-5.789062 15.617187-55.09375 69.460937-90.242188 126.179687-82.371094 56.722656 7.875 98.960937 56.355469 98.984375 113.617187 0 .457032 0 .902344-.007812 1.359376-.058594 2.429687.988281 4.753906 2.847656 6.316406 1.863281 1.5625 4.332031 2.199218 6.714844 1.722656 4.105468-.699219 8.273437-1 12.441406-.898438 35.796875 0 64.925781 29.261719 64.925781 65.234376 0 .617187.066406 1.230468.199219 1.832031-1.003906 41.859375-35.1875 75.292969-77.0625 75.371093zm0 0" fill="url(#b)"/><path d="m43.011719 324.65625c-4.144531-1.53125-8.746094.582031-10.28125 4.726562l-11.316407 30.546876c-1.0625 2.699218-.585937 5.761718 1.246094 8.003906 1.835938 2.246094 4.742188 3.324218 7.597656 2.816406 2.855469-.507812 5.210938-2.523438 6.15625-5.261719l11.320313-30.550781c1.535156-4.140625-.578125-8.746094-4.722656-10.28125zm0 0" fill="url(#c)"/><path d="m113.164062 324.65625c-4.144531-1.53125-8.746093.582031-10.28125 4.726562l-11.320312 30.546876c-1.0625 2.699218-.585938 5.761718 1.246094 8.003906 1.835937 2.246094 4.742187 3.324218 7.597656 2.816406 2.851562-.507812 5.210938-2.523438 6.15625-5.261719l11.316406-30.550781c1.535156-4.140625-.574218-8.742188-4.714844-10.28125zm0 0" fill="url(#d)"/><path d="m184.441406 324.65625c-4.140625-1.53125-8.742187.582031-10.277344 4.726562l-11.316406 30.546876c-1.0625 2.699218-.589844 5.761718 1.246094 8.003906 1.835938 2.246094 4.742188 3.324218 7.597656 2.816406 2.851563-.507812 5.210938-2.523438 6.15625-5.261719l11.316406-30.550781c1.535157-4.140625-.578124-8.742188-4.722656-10.28125zm0 0" fill="url(#e)"/><path d="m254.59375 324.65625c-4.144531-1.53125-8.746094.582031-10.28125 4.726562l-11.316406 30.546876c-1.0625 2.699218-.585938 5.761718 1.246094 8.003906 1.835937 2.246094 4.742187 3.324218 7.597656 2.816406 2.851562-.507812 5.210937-2.523438 6.15625-5.261719l11.316406-30.550781c1.535156-4.140625-.578125-8.742188-4.71875-10.28125zm0 0" fill="url(#f)"/><path d="m325.875 324.65625c-4.144531-1.53125-8.746094.582031-10.28125 4.726562l-11.3125 30.546876c-1.066406 2.699218-.589844 5.761718 1.246094 8.003906 1.832031 2.246094 4.738281 3.324218 7.59375 2.816406 2.855468-.507812 5.210937-2.523438 6.160156-5.261719l11.3125-30.550781c1.535156-4.140625-.578125-8.742188-4.71875-10.28125zm0 0" fill="url(#g)"/><path d="m396.027344 324.65625c-4.144532-1.53125-8.746094.582031-10.28125 4.726562l-11.316406 30.546876c-1.066407 2.699218-.589844 5.761718 1.246093 8.003906 1.835938 2.246094 4.742188 3.324218 7.59375 2.816406 2.855469-.507812 5.210938-2.523438 6.160157-5.261719l11.316406-30.550781c1.535156-4.140625-.578125-8.742188-4.71875-10.28125zm0 0" fill="url(#h)"/><path d="m59.175781 391.425781c-4.144531-1.535156-8.746093.578125-10.28125 4.722657l-11.316406 30.550781c-1.0625 2.695312-.582031 5.753906 1.25 7.996093 1.835937 2.242188 4.738281 3.320313 7.589844 2.8125 2.855469-.503906 5.210937-2.515624 6.160156-5.25l11.316406-30.550781c1.535157-4.140625-.578125-8.746093-4.71875-10.28125zm0 0" fill="url(#i)"/><path d="m129.324219 391.425781c-4.144531-1.535156-8.746094.582031-10.28125 4.722657l-11.3125 30.550781c-1.066407 2.695312-.589844 5.757812 1.242187 8.003906 1.835938 2.246094 4.742188 3.320313 7.597656 2.8125 2.855469-.507813 5.210938-2.519531 6.160157-5.257813l11.3125-30.550781c1.535156-4.144531-.578125-8.746093-4.71875-10.28125zm0 0" fill="url(#j)"/><path d="m200.605469 391.425781c-4.144531-1.535156-8.746094.582031-10.28125 4.722657l-11.3125 30.550781c-1.066407 2.695312-.589844 5.757812 1.246093 8.003906 1.832032 2.246094 4.738282 3.320313 7.59375 2.8125 2.855469-.507813 5.210938-2.519531 6.160157-5.257813l11.3125-30.550781c1.535156-4.144531-.578125-8.746093-4.71875-10.28125zm0 0" fill="url(#k)"/><path d="m270.757812 391.425781c-4.144531-1.535156-8.746093.582031-10.28125 4.722657l-11.3125 30.550781c-1.066406 2.695312-.589843 5.757812 1.246094 8.003906 1.835938 2.246094 4.738282 3.320313 7.59375 2.8125 2.855469-.507813 5.210938-2.519531 6.160156-5.257813l11.316407-30.550781c1.53125-4.144531-.582031-8.746093-4.722657-10.28125zm0 0" fill="url(#l)"/><path d="m342.039062 391.425781c-4.144531-1.535156-8.746093.582031-10.28125 4.722657l-11.316406 30.550781c-1.0625 2.695312-.585937 5.757812 1.246094 8.003906 1.835938 2.246094 4.742188 3.320313 7.597656 2.8125 2.851563-.507813 5.210938-2.519531 6.15625-5.257813l11.316406-30.550781c1.535157-4.144531-.578124-8.746093-4.71875-10.28125zm0 0" fill="url(#m)"/><path d="m412.1875 391.425781c-4.144531-1.535156-8.746094.582031-10.28125 4.722657l-11.3125 30.550781c-1.066406 2.695312-.589844 5.757812 1.246094 8.003906 1.835937 2.246094 4.742187 3.320313 7.59375 2.8125 2.855468-.507813 5.210937-2.519531 6.160156-5.257813l11.3125-30.550781c1.535156-4.144531-.578125-8.746093-4.71875-10.28125zm0 0" fill="url(#n)"/></svg>