<svg height="469pt" viewBox="-15 0 469 469.95218" width="469pt" xmlns="http://www.w3.org/2000/svg" xmlns:xlink="http://www.w3.org/1999/xlink"><linearGradient id="a" gradientUnits="userSpaceOnUse" x1="219.64009" x2="219.64009" y1="-13.024375" y2="477.469625"><stop offset="0" stop-color="#00efd1"/><stop offset="1" stop-color="#00acea"/></linearGradient><path d="m414.886719 146.917969c-15.140625-15.234375-35.75-23.769531-57.230469-23.699219-2.011719 0-4.085938.023438-6.199219.125-4-69.191406-61.238281-123.2695312-130.546875-123.34375-28.761718-.0898438-56.738281 9.40625-79.511718 26.980469-20.878907 16.082031-36.464844 38.050781-44.753907 63.070312-55.523437 9.179688-96.230469 57.21875-96.164062 113.5 0 .09375 0 .183594.003906.277344v.265625c-.003906.117188-.007813.460938-.007813.582031 0 51.324219 41.753907 93.300781 93.078126 93.300781h69.3125l-9.074219 79.214844c-.253907 2.25.46875 4.503906 1.992187 6.183594 1.519532 1.683594 3.6875 2.628906 5.953125 2.601562h29.257813l-4.421875 75.558594c-.1875 3.65625 2.125 6.972656 5.621093 8.058594 3.496094 1.082031 7.28125-.34375 9.195313-3.464844l82.96875-135.800781c1.511719-2.503906 1.566406-5.617187.152344-8.175781-1.402344-2.542969-4.066407-4.136719-6.972657-4.175782h-31.425781l13.109375-20h86.5c51.324219 0 93.078125-41.976562 93.078125-93.300781 0-.695312-.082031-1.382812-.242187-2.058593-.402344-20.925782-8.886719-40.886719-23.671875-55.699219zm-190.351563 183c1.417969 2.535156 4.109375 4.09375 7.011719 4.058593h31.726563l-58.855469 96.417969 3.046875-52.097656c.128906-2.175781-.65625-4.308594-2.164063-5.882813-1.519531-1.582031-3.628906-2.464843-5.820312-2.4375h-28.769531l8.265624-72h61.285157l-15.464844 24.0625c-1.5625 2.367188-1.664063 5.410157-.257813 7.875zm121.1875-47.941407h-252.167968c-42.355469 0-76.84375-34.566406-77.074219-76.871093.007812-.167969.011719-.238281.011719-.40625.003906-.242188-.007813-.484375-.03125-.722657h.019531c0-51 37.507812-92.742187 87.25-98.554687 3.230469-.421875 5.894531-2.730469 6.769531-5.871094 15.597656-55.097656 69.429688-90.265625 126.15625-82.410156 56.722656 7.859375 98.972656 56.332031 99.007812 113.597656 0 .457031 0 .890625-.007812 1.347657-.0625 2.429687.988281 4.753906 2.847656 6.316406s4.332032 2.195312 6.714844 1.71875c4.105469-.699219 8.273438-1 12.4375-.902344 35.800781 0 64.929688 29.265625 64.929688 65.234375 0 .667969.066406 1.335937.199218 1.992187-.945312 41.6875-35.152344 75.53125-77.0625 75.53125zm0 0" fill="url(#a)"/></svg>