<svg height="484pt" viewBox="-31 0 484 484.84654" width="484pt" xmlns="http://www.w3.org/2000/svg" xmlns:xlink="http://www.w3.org/1999/xlink"><linearGradient id="a"><stop offset="0" stop-color="#00efd1"/><stop offset="1" stop-color="#00acea"/></linearGradient><linearGradient id="b" gradientUnits="userSpaceOnUse" x1="213.75553" x2="213.75553" xlink:href="#a" y1="-5.662078" y2="484.831922"/><linearGradient id="c" gradientUnits="userSpaceOnUse" x1="14.13953" x2="14.13953" xlink:href="#a" y1="-5.662078" y2="484.831922"/><linearGradient id="d" gradientUnits="userSpaceOnUse" x1="84.28953" x2="84.28953" xlink:href="#a" y1="-5.662078" y2="484.831922"/><linearGradient id="e" gradientUnits="userSpaceOnUse" x1="155.57153" x2="155.57153" xlink:href="#a" y1="-5.662078" y2="484.831922"/><linearGradient id="f" gradientUnits="userSpaceOnUse" x1="225.72153" x2="225.72153" xlink:href="#a" y1="-5.662078" y2="484.831922"/><linearGradient id="g" gradientUnits="userSpaceOnUse" x1="297.00353" x2="297.00353" xlink:href="#a" y1="-5.662078" y2="484.831922"/><linearGradient id="h" gradientUnits="userSpaceOnUse" x1="367.15453" x2="367.15453" xlink:href="#a" y1="-5.662078" y2="484.831922"/><linearGradient id="i" gradientUnits="userSpaceOnUse" x1="30.30253" x2="30.30253" xlink:href="#a" y1="-5.662078" y2="484.831922"/><linearGradient id="j" gradientUnits="userSpaceOnUse" x1="100.45353" x2="100.45353" xlink:href="#a" y1="-5.662078" y2="484.831922"/><linearGradient id="k" gradientUnits="userSpaceOnUse" x1="171.73453" x2="171.73453" xlink:href="#a" y1="-5.662078" y2="484.831922"/><linearGradient id="l" gradientUnits="userSpaceOnUse" x1="241.88553" x2="241.88553" xlink:href="#a" y1="-5.662078" y2="484.831922"/><linearGradient id="m" gradientUnits="userSpaceOnUse" x1="313.16653" x2="313.16653" xlink:href="#a" y1="-5.662078" y2="484.831922"/><linearGradient id="n" gradientUnits="userSpaceOnUse" x1="383.31753" x2="383.31753" xlink:href="#a" y1="-5.662078" y2="484.831922"/><path d="m400.277344 140.265625c-14.511719-14.601563-34.265625-22.785156-54.855469-22.71875-1.808594 0-3.671875.019531-5.5625.101563-3.585937-59.925782-49.226563-108.859376-108.757813-116.601563-59.53125-7.746094-116.171874 27.886719-134.964843 84.902344-53.042969 8.878906-91.886719 54.816406-91.828125 108.597656 0 .089844 0 .179687.007812.269531v.25c-.007812.113282-.007812.109375-.007812.226563.0625 49.199219 39.964844 89.046875 89.164062 89.046875h60.035156l-2.953124 31.769531c-.207032 2.316406.53125 4.617187 2.054687 6.375 1.492187 1.730469 3.632813 2.761719 5.914063 2.855469h27.519531l-4.191407 71.554687c-.140624 2.191407.644532 4.335938 2.164063 5.921875 1.515625 1.582032 3.628906 2.457032 5.820313 2.410156 2.808593-.058593 5.390624-1.558593 6.828124-3.972656l71.34375-116.914062h66.035157c49.195312 0 89.097656-39.847656 89.164062-89.042969 0-.625-.078125-1.246094-.230469-1.851563-.402343-19.996093-8.539062-39.054687-22.699218-53.179687zm-200.589844 225.300781 2.820312-48.199218c.128907-2.136719-.660156-4.222657-2.167968-5.738282-1.535156-1.542968-3.644532-2.371094-5.816406-2.289062h-27.222657l8.175781-88h60.09375l-17.851562 43.257812c-1.015625 2.414063-.734375 5.183594.75 7.34375 1.5 2.179688 4 3.460938 6.648438 3.402344h29.609374zm134.355469-97.226562h-57.121094c.144531-1.6875-.183594-3.382813-.957031-4.890625-1.410156-2.527344-4.078125-4.101563-6.976563-4.109375h-31.917969l17.847657-43.136719c1.019531-2.4375.738281-5.222656-.746094-7.40625-1.496094-2.195313-3.992187-3.496094-6.648437-3.457031h-79.335938c-4.101562-.066406-7.566406 3.03125-7.964844 7.117187l-5.222656 55.882813h-61.527344c-40.203125.007812-72.878906-32.429688-73.160156-72.632813.007812-.164062.011719-.375.011719-.535156 0-.273437-.015625-.832031-.03125-.832031h.015625c-.144532-47.683594 35.546875-87.867188 82.914062-93.347656 3.203125-.351563 5.878906-2.605469 6.765625-5.707032 14.871094-52.375 66.074219-85.773437 119.996094-78.273437 53.925781 7.496093 94.074219 53.597656 94.089844 108.042969 0 .429687 0 .863281-.007813 1.296874-.0625 2.433594.984375 4.757813 2.84375 6.324219 1.863282 1.566407 4.332032 2.199219 6.71875 1.722657 18.074219-3.023438 36.574219 1.972656 50.667969 13.695312 14.089844 11.71875 22.378906 28.996094 22.699219 47.324219-.003906.539062.058594 1.078125.183594 1.605469-.992188 39.675781-33.445313 71.320312-73.136719 71.316406zm0 0" fill="url(#b)"/><path d="m22.574219 371.859375c-4.140625-1.535156-8.742188.578125-10.277344 4.722656l-11.316406 30.546875c-1.0625002 2.695313-.585938 5.757813 1.25 8 1.835937 2.242188 4.738281 3.316406 7.589843 2.8125 2.855469-.507812 5.210938-2.515625 6.160157-5.253906l11.320312-30.550781c1.53125-4.140625-.582031-8.746094-4.726562-10.277344zm0 0" fill="url(#c)"/><path d="m92.726562 371.859375c-4.144531-1.535156-8.746093.578125-10.28125 4.722656l-11.316406 30.550781c-1.0625 2.695313-.585937 5.757813 1.246094 8 1.835938 2.246094 4.742188 3.324219 7.597656 2.816407 2.851563-.507813 5.210938-2.519531 6.15625-5.261719l11.316406-30.550781c1.53125-4.140625-.578124-8.742188-4.71875-10.277344zm0 0" fill="url(#d)"/><path d="m164.007812 371.859375c-4.144531-1.535156-8.746093.578125-10.28125 4.722656l-11.3125 30.550781c-1.066406 2.695313-.589843 5.757813 1.242188 8 1.835938 2.246094 4.742188 3.324219 7.597656 2.816407 2.855469-.507813 5.210938-2.519531 6.160156-5.261719l11.3125-30.550781c1.535157-4.140625-.578124-8.742188-4.71875-10.277344zm0 0" fill="url(#e)"/><path d="m234.15625 371.859375c-4.140625-1.535156-8.746094.578125-10.277344 4.722656l-11.316406 30.550781c-1.066406 2.695313-.589844 5.757813 1.246094 8 1.835937 2.246094 4.738281 3.324219 7.59375 2.816407 2.855468-.507813 5.210937-2.519531 6.160156-5.261719l11.316406-30.550781c1.53125-4.140625-.578125-8.742188-4.722656-10.277344zm0 0" fill="url(#f)"/><path d="m305.445312 371.859375c-4.144531-1.535156-8.75.578125-10.28125 4.722656l-11.320312 30.550781c-1.066406 2.695313-.589844 5.757813 1.246094 8 1.835937 2.246094 4.738281 3.324219 7.59375 2.816407 2.855468-.507813 5.210937-2.519531 6.160156-5.261719l11.3125-30.550781c1.535156-4.140625-.574219-8.742188-4.710938-10.277344zm0 0" fill="url(#g)"/><path d="m375.589844 371.859375c-4.144532-1.535156-8.746094.578125-10.28125 4.722656l-11.3125 30.550781c-1.066406 2.695313-.589844 5.757813 1.242187 8 1.835938 2.246094 4.742188 3.324219 7.597657 2.816407 2.855468-.507813 5.210937-2.519531 6.160156-5.261719l11.316406-30.550781c1.535156-4.140625-.578125-8.746094-4.722656-10.277344zm0 0" fill="url(#h)"/><path d="m38.742188 438.625c-4.140626-1.535156-8.742188.582031-10.277344 4.722656l-11.320313 30.550782c-1.070312 2.699218-.59375 5.761718 1.242188 8.007812 1.832031 2.25 4.742187 3.324219 7.597656 2.816406 2.855469-.507812 5.214844-2.523437 6.160156-5.269531l11.3125-30.546875c1.535157-4.140625-.574219-8.742188-4.714843-10.28125zm0 0" fill="url(#i)"/><path d="m108.890625 438.625c-4.144531-1.535156-8.746094.582031-10.28125 4.722656l-11.316406 30.550782c-1.0625 2.695312-.582031 5.753906 1.25 7.996093 1.835937 2.246094 4.738281 3.320313 7.589843 2.8125 2.855469-.503906 5.210938-2.515625 6.160157-5.25l11.316406-30.550781c1.535156-4.140625-.578125-8.742188-4.71875-10.28125zm0 0" fill="url(#j)"/><path d="m180.171875 438.625c-4.144531-1.535156-8.746094.582031-10.28125 4.722656l-11.316406 30.550782c-1.0625 2.695312-.582031 5.753906 1.25 7.996093 1.835937 2.246094 4.738281 3.320313 7.589843 2.8125 2.855469-.503906 5.210938-2.515625 6.160157-5.25l11.316406-30.550781c1.535156-4.140625-.578125-8.742188-4.71875-10.28125zm0 0" fill="url(#k)"/><path d="m250.320312 438.625c-4.140624-1.535156-8.746093.582031-10.28125 4.722656l-11.3125 30.550782c-1.0625 2.695312-.585937 5.753906 1.25 7.996093 1.832032 2.246094 4.738282 3.320313 7.589844 2.8125 2.851563-.503906 5.207032-2.515625 6.160156-5.25l11.3125-30.550781c1.535157-4.140625-.578124-8.742188-4.71875-10.28125zm0 0" fill="url(#l)"/><path d="m321.605469 438.625c-4.144531-1.535156-8.75.582031-10.28125 4.722656l-11.316407 30.550782c-1.0625 2.695312-.585937 5.753906 1.25 7.996093 1.832032 2.246094 4.738282 3.320313 7.589844 2.8125 2.851563-.503906 5.210938-2.515625 6.160156-5.25l11.316407-30.550781c1.53125-4.140625-.578125-8.742188-4.71875-10.28125zm0 0" fill="url(#m)"/><path d="m391.753906 438.625c-4.144531-1.535156-8.746094.582031-10.28125 4.722656l-11.316406 30.550782c-1.066406 2.699218-.59375 5.761718 1.242188 8.007812 1.835937 2.25 4.742187 3.324219 7.601562 2.816406 2.855469-.507812 5.210938-2.523437 6.15625-5.269531l11.316406-30.546875c1.535156-4.140625-.578125-8.746094-4.71875-10.28125zm0 0" fill="url(#n)"/></svg>