<svg height="484pt" viewBox="-89 0 484 484.08577" width="484pt" xmlns="http://www.w3.org/2000/svg" xmlns:xlink="http://www.w3.org/1999/xlink"><linearGradient id="a" gradientUnits="userSpaceOnUse" x1="153.535555" x2="153.535555" y1="-6.19223" y2="484.30177"><stop offset="0" stop-color="#00efd1"/><stop offset="1" stop-color="#00acea"/></linearGradient><path d="m299.027344 169.808594h-130.398438l-37.328125-163.589844c-.773437-3.390625-3.652343-5.894531-7.117187-6.1914062-3.464844-.2929688-6.726563 1.6796872-8.066406 4.8906252l-115.457032 276.808593c-1.03125 2.46875-.7578122 5.289063.726563 7.515626 1.480469 2.226562 3.980469 3.566406 6.65625 3.566406h130.355469l28.738281 184.507812c.550781 3.542969 3.390625 6.285156 6.949219 6.710938.316406.039062.636718.058594.957031.058594 3.230469 0 6.144531-1.945313 7.382812-4.929688l123.988281-298.277344c1.027344-2.46875.753907-5.289062-.730468-7.511718-1.484375-2.222657-3.980469-3.558594-6.65625-3.558594zm-120.460938 276.945312-25.414062-163.175781c-.605469-3.898437-3.960938-6.769531-7.902344-6.769531h-125.203125l101.214844-242.660156 33.1875 145.4375c.832031 3.640624 4.066406 6.222656 7.800781 6.222656h124.785156zm0 0" fill="url(#a)"/></svg>