<svg height="476pt" viewBox="-54 0 476 476.00223" width="476pt" xmlns="http://www.w3.org/2000/svg" xmlns:xlink="http://www.w3.org/1999/xlink"><linearGradient id="a" gradientUnits="userSpaceOnUse" x1="184.006498" x2="184.006498" y1="-9.998884" y2="480.495116"><stop offset="0" stop-color="#00efd1"/><stop offset="1" stop-color="#00acea"/></linearGradient><path d="m361.292969 70.976562-221.726563-30.789062c-2.210937-.316406-4.445312.378906-6.082031 1.890625-1.671875 1.550781-2.578125 3.757813-2.476563 6.035156v11.75l-48 15.660157v-67.738282c0-4.417968-3.960937-7.785156-8.378906-7.785156h-27c-2.058594-.0351562-4.042968.78125-5.484375 2.25-1.441406 1.472656-2.214843 3.476562-2.136719 5.535156v428.214844h-32.378906c-4.417968 0-7.6210935 3.800781-7.6210935 8.21875v24c-.078125 2.058594.6953125 4.058594 2.1367185 5.53125 1.441407 1.472656 3.425781 2.285156 5.484375 2.25h107c4.417969 0 8.378906-3.363281 8.378906-7.78125v-24c-.160156-4.53125-3.84375-8.144531-8.378906-8.21875h-31.621094v-259.523438l48 15.660157v11.753906c-.085937 2.28125.835938 4.488281 2.523438 6.03125 1.410156 1.265625 3.242188 1.96875 5.140625 1.96875.347656 0 .699219-.027344 1.042969-.078125l221.609375-30.785156c3.910156-.570313 6.78125-3.972656 6.683593-7.925782v-94.199218c.085938-3.960938-2.796874-7.359375-6.714843-7.925782zm-75.964844 5.570313-.640625 99.003906-52.679688 7.320313v-113.738282zm-178.320313 383.453125h-91v-8h91zm-51-24v-420h11v420zm27-276.355469v-67.289062l48-15.65625v98.601562zm64-102.34375 69 9.613281v118.175782l-69 9.609375zm205 108.835938-51.636718 7.191406.566406-94.5625 51.070312 7.097656zm0 0" fill="url(#a)"/></svg>