<svg height="461pt" viewBox="0 -89 461.5 461" width="461pt" xmlns="http://www.w3.org/2000/svg" xmlns:xlink="http://www.w3.org/1999/xlink"><linearGradient id="a"><stop offset="0" stop-color="#00efd1"/><stop offset="1" stop-color="#00acea"/></linearGradient><linearGradient id="b" gradientUnits="userSpaceOnUse" x1="211.706" x2="211.706" xlink:href="#a" y1="-100.25" y2="379.854"/><linearGradient id="c" gradientUnits="userSpaceOnUse" x1="121.464" x2="121.464" xlink:href="#a" y1="-100.25" y2="379.854"/><linearGradient id="d" gradientUnits="userSpaceOnUse" x1="165.836" x2="165.836" xlink:href="#a" y1="-100.25" y2="379.854"/><linearGradient id="e" gradientUnits="userSpaceOnUse" x1="46.5" x2="46.5" xlink:href="#a" y1="-100.25" y2="379.854"/><linearGradient id="f" gradientUnits="userSpaceOnUse" x1="190.5" x2="190.5" xlink:href="#a" y1="-100.25" y2="379.854"/><linearGradient id="g" gradientUnits="userSpaceOnUse" x1="426.5" x2="426.5" xlink:href="#a" y1="-100.25" y2="379.854"/><linearGradient id="h" gradientUnits="userSpaceOnUse" x1="315.379" x2="315.379" xlink:href="#a" y1="-100.25" y2="379.854"/><path d="m423.410156 106.46875c.007813-23.859375-19.300781-43.21875-43.160156-43.28125-4.417969 0-8 3.582031-8 8s3.582031 8 8 8c15.066406.058594 27.234375 12.320312 27.175781 27.386719-.054687 15.066406-12.316406 27.234375-27.382812 27.175781h-372.042969c-4.417969 0-8 3.582031-8 8s3.582031 8 8 8h372.042969c23.914062-.003906 43.316406-19.363281 43.367187-43.28125zm0 0" fill="url(#b)"/><path d="m8 107.75h202.613281c17.785157-.042969 32.167969-14.496094 32.125-32.277344-.046875-17.785156-14.496093-32.164062-32.28125-32.121094-4.417969 0-8 3.582032-8 8 0 4.417969 3.582031 8 8 8 9.019531-.066406 16.386719 7.179688 16.472657 16.199219.03125 4.324219-1.679688 8.480469-4.75 11.53125-3.070313 3.046875-7.238282 4.730469-11.566407 4.667969h-202.613281c-4.417969 0-8 3.582031-8 8s3.582031 8 8 8zm0 0" fill="url(#c)"/><path d="m288.261719 177.75h-280.261719c-4.417969 0-8 3.582031-8 8s3.582031 8 8 8h280.261719c9.703125-.117188 18.726562 4.972656 23.640625 13.339844 4.917968 8.367187 4.972656 18.726562.144531 27.148437-4.824219 8.417969-13.792969 13.605469-23.496094 13.589844-4.417969 0-8 3.582031-8 8 0 4.421875 3.582031 8 8 8 15.4375.042969 29.714844-8.191406 37.414063-21.570313 7.703125-13.378906 7.644531-29.859374-.144532-43.1875-7.789062-13.328124-22.121093-21.464843-37.558593-21.320312zm0 0" fill="url(#d)"/><path d="m46.5 58.25c16.015625 0 29-12.984375 29-29s-12.984375-29-29-29-29 12.984375-29 29c.019531 16.007812 12.992188 28.980469 29 29zm0-42c7.179688 0 13 5.820312 13 13s-5.820312 13-13 13-13-5.820312-13-13c.007812-7.175781 5.824219-12.992188 13-13zm0 0" fill="url(#e)"/><path d="m190.5 223.25c-16.570312 0-30 13.429688-30 30s13.429688 30 30 30 30-13.429688 30-30c-.019531-16.5625-13.4375-29.980469-30-30zm0 44c-7.730469 0-14-6.269531-14-14s6.269531-14 14-14 14 6.269531 14 14c-.007812 7.730469-6.269531 13.992188-14 14zm0 0" fill="url(#f)"/><path d="m426.5 200.25c-19.328125 0-35 15.671875-35 35s15.671875 35 35 35 35-15.671875 35-35c-.023438-19.320312-15.679688-34.976562-35-35zm0 54c-10.492188 0-19-8.507812-19-19s8.507812-19 19-19 19 8.507812 19 19c-.011719 10.488281-8.511719 18.988281-19 19zm0 0" fill="url(#g)"/><path d="m315.378906 95.492188c15.53125 0 28.121094-12.589844 28.121094-28.121094s-12.589844-28.121094-28.121094-28.121094-28.121094 12.589844-28.121094 28.121094c.019532 15.523437 12.597657 28.101562 28.121094 28.121094zm0-40.242188c6.695313 0 12.121094 5.425781 12.121094 12.121094 0 6.695312-5.425781 12.121094-12.121094 12.121094-6.695312 0-12.121094-5.425782-12.121094-12.121094.007813-6.691406 5.429688-12.113282 12.121094-12.121094zm0 0" fill="url(#h)"/></svg>